<svg width="228" height="62" viewBox="0 0 228 62" fill="none" xmlns="http://www.w3.org/2000/svg">
<path fill-rule="evenodd" clip-rule="evenodd" d="M8.31376 61.8108H43.7706C44.9682 60.5426 45.7611 50.6486 46.0562 48.2589C46.6422 43.5124 47.2664 38.7931 47.8446 34.061L49.6051 20.1562C49.739 19.5366 54.0471 12.745 46.8164 9.78097C45.7239 6.94441 45.7371 3.00279 39.1687 4.58866C35.9622 1.00605 33.7179 1.34989 30.0507 2.94962C29.5302 2.5504 29.309 2.26509 28.6341 1.83829C28.03 1.45615 27.506 1.321 26.953 1H24.8594L21.7616 2.80827C17.8892 0.701213 14.9192 2.26211 12.92 4.59977C6.31013 2.93116 6.25984 7.12475 5.27228 9.78097C3.39835 10.5297 1.84805 11.8411 1.27434 13.9433C0.355389 17.3106 1.99991 17.9483 2.4794 20.1421C3.16487 23.2779 5.4084 43.3013 6.0295 48.2576C6.3214 50.5866 7.13102 60.5834 8.31376 61.8108V61.8108Z" fill="#171717" stroke="#171717" stroke-width="0.2" stroke-miterlimit="22.9256" stroke-linecap="round" stroke-linejoin="round"/>
<path fill-rule="evenodd" clip-rule="evenodd" d="M13.7489 7.46373C12.5361 7.47093 9.87543 4.98004 8.20342 7.74505C7.61389 8.72001 7.73216 10.2857 8.5962 10.913C9.9955 11.929 10.4441 10.6128 11.2909 12.3513C11.3507 12.9273 10.0099 15.3381 6.33207 11.8775C3.5724 12.6611 2.62588 15.3681 4.1465 17.9603H47.9422C50.8189 12.8431 45.0247 11.7532 44.1302 11.3369C43.9441 9.75665 44.7161 8.88565 43.7758 7.57489C42.183 5.35452 38.5935 6.65172 38.9784 9.02363C39.2145 10.4791 40.4471 10.2991 39.8415 12.1742C38.2425 12.5786 37.5244 11.7204 36.9768 10.4422C36.1195 8.44068 36.8772 7.7737 37.285 6.13512C35.7907 3.81286 33.1205 3.32928 30.8887 5.35061C27.9358 8.02499 29.2047 2.47261 25.1165 3.41647C23.3784 3.81776 23.8336 5.10538 22.6378 5.65239C21.2134 6.3039 19.1087 2.30912 15.8133 4.9209C14.6313 5.85763 14.8338 6.75591 13.7489 7.46373V7.46373Z" fill="#FEFEFE" stroke="#171717" stroke-width="0.2" stroke-miterlimit="22.9256" stroke-linecap="round" stroke-linejoin="round"/>
<path fill-rule="evenodd" clip-rule="evenodd" d="M31.5729 59.511C32.3856 59.5235 35.6212 59.7103 36.0525 59.2884C36.6071 58.4463 39.4048 23.8169 39.3995 20.2337L32.6875 20.2483C32.4454 23.7016 32.2666 28.2285 32.299 31.5727C32.3262 34.3803 35.8417 34.0885 35.6808 40.1975C35.6346 41.9521 35.1318 43.3737 34.3555 44.6677C32.8527 47.1725 32.0246 46.6645 31.8006 48.0556C31.6152 49.2068 31.3971 58.4314 31.5729 59.511V59.511Z" fill="#FEFEFE" stroke="#171717" stroke-width="0.2" stroke-miterlimit="22.9256" stroke-linecap="round" stroke-linejoin="round"/>
<path fill-rule="evenodd" clip-rule="evenodd" d="M20.5157 59.511C20.7502 58.0368 20.4827 50.0496 20.311 48.2937C20.122 46.3626 16.584 45.7341 16.4058 40.1975C16.3284 37.7937 17.1523 35.2675 18.7526 33.7249C19.4511 33.0515 19.7186 33.1276 19.7883 31.833C19.9452 28.9208 19.6203 23.3839 19.4007 20.3363L12.6891 20.2187L15.7502 58.581C15.9577 59.9994 16.6408 59.5703 20.5157 59.511V59.511Z" fill="#FEFEFE" stroke="#171717" stroke-width="0.2" stroke-miterlimit="22.9256" stroke-linecap="round" stroke-linejoin="round"/>
<path fill-rule="evenodd" clip-rule="evenodd" d="M13.3773 59.5259C13.6504 57.8141 10.7675 24.406 10.3022 20.3173L4.89856 20.2152C5.10807 25.4737 8.61885 49.3555 9.51321 57.3201C9.85861 60.3961 9.93685 59.4988 13.3773 59.5259V59.5259Z" fill="#FEFEFE" stroke="#171717" stroke-width="0.2" stroke-miterlimit="22.9256" stroke-linecap="round" stroke-linejoin="round"/>
<path fill-rule="evenodd" clip-rule="evenodd" d="M38.7027 59.5259C42.8965 59.4932 42.0901 61.314 43.2049 52.2783C43.9222 46.4652 47.0383 24.0228 47.1902 20.2188L41.7859 20.2497C41.5694 22.1084 38.4575 57.9131 38.7027 59.5259V59.5259Z" fill="#FEFEFE" stroke="#171717" stroke-width="0.2" stroke-miterlimit="22.9256" stroke-linecap="round" stroke-linejoin="round"/>
<path fill-rule="evenodd" clip-rule="evenodd" d="M24.8843 32.8347C14.7924 34.9367 18.1056 48.6726 27.5173 46.9034C30.9918 46.2502 34.0997 42.8315 33.2153 38.4255C32.5524 35.1231 28.9406 31.9898 24.8843 32.8347V32.8347Z" fill="#FEFEFE" stroke="#171717" stroke-width="0.2" stroke-miterlimit="22.9256" stroke-linecap="round" stroke-linejoin="round"/>
<path fill-rule="evenodd" clip-rule="evenodd" d="M22.0743 31.1973C25.6935 30.1353 26.4055 30.1423 29.9749 31.1962L30.3563 20.2239L21.7616 20.2268L22.0743 31.1973V31.1973Z" fill="#128AB4" stroke="#171717" stroke-width="0.2" stroke-miterlimit="22.9256" stroke-linecap="round" stroke-linejoin="round"/>
<path fill-rule="evenodd" clip-rule="evenodd" d="M22.963 59.491L29.0508 59.5153L29.4881 48.7746C26.0119 49.4769 26.0766 49.4768 22.6111 48.7743L22.963 59.491Z" fill="#FEFEFE" stroke="#171717" stroke-width="0.2" stroke-miterlimit="22.9256" stroke-linecap="round" stroke-linejoin="round"/>
<path fill-rule="evenodd" clip-rule="evenodd" d="M23.6957 11.7733C25.5144 11.7042 25.4463 10.135 27.6822 10.8769C29.3071 11.4162 29.0238 12.9885 29.7062 14.2549C33.0029 14.5406 31.2461 11.2329 30.6598 10.4137C28.1556 6.91411 25.0132 9.42139 23.5277 8.73487C22.5154 8.267 22.3531 7.96684 20.9603 8.05349C17.0863 8.29443 15.433 13.1967 18.7167 15.6139C20.9796 17.2797 23.5543 16.0586 22.0513 14.5477C21.5872 14.0812 17.7663 13.6328 19.6681 11.1211C21.3094 8.95368 23.2983 11.5638 23.6957 11.7733V11.7733Z" fill="#171717" stroke="#171717" stroke-width="0.2" stroke-miterlimit="22.9256" stroke-linecap="round" stroke-linejoin="round"/>
<path fill-rule="evenodd" clip-rule="evenodd" d="M23.3557 45.299C21.4789 44.7778 19.7209 42.1205 19.8273 39.5205C19.9302 37.006 21.7956 34.8104 23.6725 34.2201L25.925 38.517C26.4511 37.9804 27.8975 35.0213 28.177 34.1807C30.2124 34.581 32.1728 37.0955 32.2488 39.6601C32.3296 42.3906 30.5139 44.7095 28.6457 45.3478C28.4139 44.8904 28.0465 44.2323 27.9397 43.7132C29.11 42.8421 29.945 42.3922 30.2819 40.6952C30.5902 39.1422 29.9668 37.4978 29.0654 36.8853C28.1606 38.0583 26.724 41.5526 25.8854 42.3466L22.9791 36.9642C22.5516 37.1872 22.8362 36.9812 22.5353 37.3297L21.9089 38.5522C20.9579 41.5868 23.1033 42.8168 24.1554 43.7361L23.3557 45.299V45.299ZM34.1019 41.1999C34.984 36.4109 31.3907 32.59 27.3907 31.9515C22.5436 31.1778 18.6712 34.5605 17.9821 38.4651C17.1155 43.376 20.6837 47.1431 24.7316 47.801C29.6302 48.5972 33.3826 45.1056 34.1019 41.1999V41.1999Z" fill="#171717"/>
<path fill-rule="evenodd" clip-rule="evenodd" d="M13.3773 59.5259C13.6504 57.8141 10.7675 24.406 10.3022 20.3173L4.89856 20.2152C5.10807 25.4737 8.61885 49.3555 9.51321 57.3201C9.85861 60.3961 9.93685 59.4988 13.3773 59.5259V59.5259Z" fill="#128AB4" stroke="black" stroke-width="0.2" stroke-miterlimit="22.9256" stroke-linecap="round" stroke-linejoin="round"/>
<path fill-rule="evenodd" clip-rule="evenodd" d="M22.6111 48.7743L22.963 59.491L29.0508 59.5153L29.4881 48.7746C26.0119 49.4769 26.0766 49.4768 22.6111 48.7743Z" fill="#128AB4" stroke="black" stroke-width="0.2" stroke-miterlimit="22.9256" stroke-linecap="round" stroke-linejoin="round"/>
<path fill-rule="evenodd" clip-rule="evenodd" d="M41.7859 20.2497C41.5694 22.1084 38.4575 57.9131 38.7027 59.5259C42.8965 59.4932 42.0901 61.314 43.2049 52.2783C43.9222 46.4652 47.0383 24.0228 47.1902 20.2188L41.7859 20.2497V20.2497Z" fill="#128AB4" stroke="black" stroke-width="0.2" stroke-miterlimit="22.9256" stroke-linecap="round" stroke-linejoin="round"/>
<path d="M72.816 26.392V43H70.632V30.616L65.112 43H63.576L58.032 30.592V43H55.848V26.392H58.2L64.344 40.12L70.488 26.392H72.816ZM82.2559 43.216C81.0239 43.216 79.9039 42.936 78.8959 42.376C77.9039 41.816 77.1199 41.024 76.5439 40C75.9839 38.96 75.7039 37.76 75.7039 36.4C75.7039 35.056 75.9919 33.872 76.5679 32.848C77.1599 31.808 77.9599 31.016 78.9679 30.472C79.9759 29.912 81.1039 29.632 82.3519 29.632C83.5999 29.632 84.7279 29.912 85.7359 30.472C86.7439 31.016 87.5359 31.8 88.1119 32.824C88.7039 33.848 88.9999 35.04 88.9999 36.4C88.9999 37.76 88.6959 38.96 88.0879 40C87.4959 41.024 86.6879 41.816 85.6639 42.376C84.6399 42.936 83.5039 43.216 82.2559 43.216ZM82.2559 41.296C83.0399 41.296 83.7759 41.112 84.4639 40.744C85.1519 40.376 85.7039 39.824 86.1199 39.088C86.5519 38.352 86.7679 37.456 86.7679 36.4C86.7679 35.344 86.5599 34.448 86.1439 33.712C85.7279 32.976 85.1839 32.432 84.5119 32.08C83.8399 31.712 83.1119 31.528 82.3279 31.528C81.5279 31.528 80.7919 31.712 80.1199 32.08C79.4639 32.432 78.9359 32.976 78.5359 33.712C78.1359 34.448 77.9359 35.344 77.9359 36.4C77.9359 37.472 78.1279 38.376 78.5119 39.112C78.9119 39.848 79.4399 40.4 80.0959 40.768C80.7519 41.12 81.4719 41.296 82.2559 41.296ZM96.7674 40.984L100.847 29.848H103.175L98.0154 43H95.4714L90.3114 29.848H92.6634L96.7674 40.984ZM106.453 27.712C106.037 27.712 105.685 27.568 105.397 27.28C105.109 26.992 104.965 26.64 104.965 26.224C104.965 25.808 105.109 25.456 105.397 25.168C105.685 24.88 106.037 24.736 106.453 24.736C106.853 24.736 107.189 24.88 107.461 25.168C107.749 25.456 107.893 25.808 107.893 26.224C107.893 26.64 107.749 26.992 107.461 27.28C107.189 27.568 106.853 27.712 106.453 27.712ZM107.509 29.848V43H105.325V29.848H107.509ZM123.231 35.92C123.231 36.336 123.207 36.776 123.159 37.24H112.647C112.727 38.536 113.167 39.552 113.967 40.288C114.783 41.008 115.767 41.368 116.919 41.368C117.863 41.368 118.647 41.152 119.271 40.72C119.911 40.272 120.359 39.68 120.615 38.944H122.967C122.615 40.208 121.911 41.24 120.855 42.04C119.799 42.824 118.487 43.216 116.919 43.216C115.671 43.216 114.551 42.936 113.559 42.376C112.583 41.816 111.815 41.024 111.255 40C110.695 38.96 110.415 37.76 110.415 36.4C110.415 35.04 110.687 33.848 111.231 32.824C111.775 31.8 112.535 31.016 113.511 30.472C114.503 29.912 115.639 29.632 116.919 29.632C118.167 29.632 119.271 29.904 120.231 30.448C121.191 30.992 121.927 31.744 122.439 32.704C122.967 33.648 123.231 34.72 123.231 35.92ZM120.975 35.464C120.975 34.632 120.791 33.92 120.423 33.328C120.055 32.72 119.551 32.264 118.911 31.96C118.287 31.64 117.591 31.48 116.823 31.48C115.719 31.48 114.775 31.832 113.991 32.536C113.223 33.24 112.783 34.216 112.671 35.464H120.975ZM130.77 43.216C129.762 43.216 128.858 43.048 128.058 42.712C127.258 42.36 126.626 41.88 126.162 41.272C125.698 40.648 125.442 39.936 125.394 39.136H127.65C127.714 39.792 128.018 40.328 128.562 40.744C129.122 41.16 129.85 41.368 130.746 41.368C131.578 41.368 132.234 41.184 132.714 40.816C133.194 40.448 133.434 39.984 133.434 39.424C133.434 38.848 133.178 38.424 132.666 38.152C132.154 37.864 131.362 37.584 130.29 37.312C129.314 37.056 128.514 36.8 127.89 36.544C127.282 36.272 126.754 35.88 126.306 35.368C125.874 34.84 125.658 34.152 125.658 33.304C125.658 32.632 125.858 32.016 126.258 31.456C126.658 30.896 127.226 30.456 127.962 30.136C128.698 29.8 129.538 29.632 130.482 29.632C131.938 29.632 133.114 30 134.01 30.736C134.906 31.472 135.386 32.48 135.45 33.76H133.266C133.218 33.072 132.938 32.52 132.426 32.104C131.93 31.688 131.258 31.48 130.41 31.48C129.626 31.48 129.002 31.648 128.538 31.984C128.074 32.32 127.842 32.76 127.842 33.304C127.842 33.736 127.978 34.096 128.25 34.384C128.538 34.656 128.89 34.88 129.306 35.056C129.738 35.216 130.33 35.4 131.082 35.608C132.026 35.864 132.794 36.12 133.386 36.376C133.978 36.616 134.482 36.984 134.898 37.48C135.33 37.976 135.554 38.624 135.57 39.424C135.57 40.144 135.37 40.792 134.97 41.368C134.57 41.944 134.002 42.4 133.266 42.736C132.546 43.056 131.714 43.216 130.77 43.216ZM163.123 26.248V43H159.763V32.104L155.275 43H152.731L148.219 32.104V43H144.859V26.248H148.675L154.003 38.704L159.331 26.248H163.123ZM165.581 36.304C165.581 34.96 165.845 33.768 166.373 32.728C166.917 31.688 167.645 30.888 168.557 30.328C169.485 29.768 170.517 29.488 171.653 29.488C172.645 29.488 173.509 29.688 174.245 30.088C174.997 30.488 175.597 30.992 176.045 31.6V29.704H179.429V43H176.045V41.056C175.613 41.68 175.013 42.2 174.245 42.616C173.493 43.016 172.621 43.216 171.629 43.216C170.509 43.216 169.485 42.928 168.557 42.352C167.645 41.776 166.917 40.968 166.373 39.928C165.845 38.872 165.581 37.664 165.581 36.304ZM176.045 36.352C176.045 35.536 175.885 34.84 175.565 34.264C175.245 33.672 174.813 33.224 174.269 32.92C173.725 32.6 173.141 32.44 172.517 32.44C171.893 32.44 171.317 32.592 170.789 32.896C170.261 33.2 169.829 33.648 169.493 34.24C169.173 34.816 169.013 35.504 169.013 36.304C169.013 37.104 169.173 37.808 169.493 38.416C169.829 39.008 170.261 39.464 170.789 39.784C171.333 40.104 171.909 40.264 172.517 40.264C173.141 40.264 173.725 40.112 174.269 39.808C174.813 39.488 175.245 39.04 175.565 38.464C175.885 37.872 176.045 37.168 176.045 36.352ZM187.799 43.216C186.711 43.216 185.735 43.024 184.871 42.64C184.007 42.24 183.319 41.704 182.807 41.032C182.311 40.36 182.039 39.616 181.991 38.8H185.375C185.439 39.312 185.687 39.736 186.119 40.072C186.567 40.408 187.119 40.576 187.775 40.576C188.415 40.576 188.911 40.448 189.263 40.192C189.631 39.936 189.815 39.608 189.815 39.208C189.815 38.776 189.591 38.456 189.143 38.248C188.711 38.024 188.015 37.784 187.055 37.528C186.063 37.288 185.247 37.04 184.607 36.784C183.983 36.528 183.439 36.136 182.975 35.608C182.527 35.08 182.303 34.368 182.303 33.472C182.303 32.736 182.511 32.064 182.927 31.456C183.359 30.848 183.967 30.368 184.751 30.016C185.551 29.664 186.487 29.488 187.559 29.488C189.143 29.488 190.407 29.888 191.351 30.688C192.295 31.472 192.815 32.536 192.911 33.88H189.695C189.647 33.352 189.423 32.936 189.023 32.632C188.639 32.312 188.119 32.152 187.463 32.152C186.855 32.152 186.383 32.264 186.047 32.488C185.727 32.712 185.567 33.024 185.567 33.424C185.567 33.872 185.791 34.216 186.239 34.456C186.687 34.68 187.383 34.912 188.327 35.152C189.287 35.392 190.079 35.64 190.703 35.896C191.327 36.152 191.863 36.552 192.311 37.096C192.775 37.624 193.015 38.328 193.031 39.208C193.031 39.976 192.815 40.664 192.383 41.272C191.967 41.88 191.359 42.36 190.559 42.712C189.775 43.048 188.855 43.216 187.799 43.216ZM199.701 32.464V38.896C199.701 39.344 199.805 39.672 200.013 39.88C200.237 40.072 200.605 40.168 201.117 40.168H202.677V43H200.565C197.733 43 196.317 41.624 196.317 38.872V32.464H194.733V29.704H196.317V26.416H199.701V29.704H202.677V32.464H199.701ZM217.454 36.064C217.454 36.544 217.422 36.976 217.358 37.36H207.638C207.718 38.32 208.054 39.072 208.646 39.616C209.238 40.16 209.966 40.432 210.83 40.432C212.078 40.432 212.966 39.896 213.494 38.824H217.118C216.734 40.104 215.998 41.16 214.91 41.992C213.822 42.808 212.486 43.216 210.902 43.216C209.622 43.216 208.47 42.936 207.446 42.376C206.438 41.8 205.646 40.992 205.07 39.952C204.51 38.912 204.229 37.712 204.229 36.352C204.229 34.976 204.51 33.768 205.07 32.728C205.63 31.688 206.414 30.888 207.422 30.328C208.43 29.768 209.59 29.488 210.902 29.488C212.166 29.488 213.294 29.76 214.286 30.304C215.294 30.848 216.07 31.624 216.614 32.632C217.174 33.624 217.454 34.768 217.454 36.064ZM213.974 35.104C213.958 34.24 213.646 33.552 213.038 33.04C212.43 32.512 211.686 32.248 210.806 32.248C209.974 32.248 209.27 32.504 208.694 33.016C208.134 33.512 207.79 34.208 207.662 35.104H213.974ZM223.266 31.768C223.698 31.064 224.258 30.512 224.946 30.112C225.65 29.712 226.45 29.512 227.346 29.512V33.04H226.458C225.402 33.04 224.602 33.288 224.058 33.784C223.53 34.28 223.266 35.144 223.266 36.376V43H219.906V29.704H223.266V31.768Z" fill="white"/>
</svg>
